<svg id="그룹_7" data-name="그룹 7" xmlns="http://www.w3.org/2000/svg" xmlns:xlink="http://www.w3.org/1999/xlink" width="184.127" height="20.443" viewBox="0 0 184.127 20.443">
  <defs>
    <clipPath id="clip-path">
      <rect id="사각형_37" data-name="사각형 37" width="184.127" height="20.443" fill="#c2c2c2"/>
    </clipPath>
  </defs>
  <g id="그룹_3" data-name="그룹 3" transform="translate(0 0)" clip-path="url(#clip-path)">
    <path id="패스_13" data-name="패스 13" d="M37.609,16.695V2.4a.236.236,0,0,1,.261-.261h4.473c3.9,0,5.871,1.9,5.871,5.163,0,3.28-1.976,5.182-5.871,5.182H40.33v4.213a.245.245,0,0,1-.261.261h-2.2a.236.236,0,0,1-.261-.261M45.4,7.244c0-1.752-1.137-2.591-3.15-2.591H40.33V9.947H42.25c2.014,0,3.15-.82,3.15-2.7" transform="translate(-16.04 -0.911)" fill="#c2c2c2"/>
    <path id="패스_14" data-name="패스 14" d="M60.071,16.459V1.846a.236.236,0,0,1,.261-.262h2.088a.236.236,0,0,1,.261.262v5.7a4.148,4.148,0,0,1,3.3-1.491A3.519,3.519,0,0,1,69.8,9.916v6.542a.244.244,0,0,1-.261.261H67.434a.236.236,0,0,1-.261-.261v-5.48c0-1.733-.634-2.535-1.995-2.535-1.286,0-2.5.951-2.5,2.945v5.07a.236.236,0,0,1-.261.261H60.332a.236.236,0,0,1-.261-.261" transform="translate(-25.621 -0.676)" fill="#c2c2c2"/>
    <path id="패스_15" data-name="패스 15" d="M80.615,14.827c0-3.225,1.9-5.442,4.883-5.442a4.1,4.1,0,0,1,3.411,1.64l.075-1.175c0-.186.112-.261.28-.261h1.882a.25.25,0,0,1,.28.261v9.935a.25.25,0,0,1-.28.261H89.264c-.168,0-.28-.075-.28-.261l-.075-1.175a4.106,4.106,0,0,1-3.411,1.64c-2.982,0-4.883-2.218-4.883-5.424m5.536,3.038a2.808,2.808,0,0,0,2.833-3.038,2.841,2.841,0,1,0-5.666,0,2.808,2.808,0,0,0,2.833,3.038" transform="translate(-34.383 -4.003)" fill="#c2c2c2"/>
    <path id="패스_16" data-name="패스 16" d="M104.248,19.828V9.893a.236.236,0,0,1,.261-.261h1.9a.249.249,0,0,1,.279.261l.056,1.3a3.751,3.751,0,0,1,3.187-1.715,3.547,3.547,0,0,1,.708.075.25.25,0,0,1,.224.279v2.069a.2.2,0,0,1-.224.224c-.28,0-.6-.075-1.025-.075a2.629,2.629,0,0,0-2.759,2.628v5.145a.236.236,0,0,1-.261.261h-2.088a.236.236,0,0,1-.261-.261" transform="translate(-44.462 -4.044)" fill="#c2c2c2"/>
    <path id="패스_17" data-name="패스 17" d="M118.909,19.786V9.851a.236.236,0,0,1,.261-.261h1.9a.249.249,0,0,1,.279.261l.056,1.248a3.953,3.953,0,0,1,3.318-1.715,3.355,3.355,0,0,1,3.28,1.92,4.1,4.1,0,0,1,3.579-1.92c2.274,0,3.672,1.454,3.672,3.858v6.542a.244.244,0,0,1-.261.261h-2.106a.236.236,0,0,1-.26-.261v-5.48c0-1.733-.653-2.535-1.864-2.535-1.23,0-2.367.951-2.367,2.945v5.07a.245.245,0,0,1-.261.261H126.03a.236.236,0,0,1-.262-.261v-5.48c0-1.733-.652-2.535-1.864-2.535-1.23,0-2.386.951-2.386,2.945v5.07a.236.236,0,0,1-.261.261H119.17a.236.236,0,0,1-.261-.261" transform="translate(-50.715 -4.003)" fill="#c2c2c2"/>
    <path id="패스_18" data-name="패스 18" d="M158.38,16.657l5.909-14.315a.3.3,0,0,1,.3-.2h1.883a.282.282,0,0,1,.3.2L172.7,16.657a.236.236,0,0,1,.019.112c0,.112-.075.186-.224.186h-2.553a.3.3,0,0,1-.3-.205l-1.044-2.759h-6.151l-1.062,2.759a.282.282,0,0,1-.3.205h-2.5c-.186,0-.3-.112-.205-.3m9.245-5.2L165.5,5.846l-2.125,5.611Z" transform="translate(-67.536 -0.911)" fill="#c2c2c2"/>
    <path id="패스_19" data-name="패스 19" d="M184.573,14.827a5.092,5.092,0,0,1,5.35-5.442c2.348,0,3.989.969,4.753,3.038a.2.2,0,0,1,.018.093.255.255,0,0,1-.2.243l-1.734.5-.093.019a.355.355,0,0,1-.261-.186,2.416,2.416,0,0,0-2.311-1.324,2.754,2.754,0,0,0-2.815,3.057,2.749,2.749,0,0,0,2.815,3.038,2.38,2.38,0,0,0,2.33-1.4c.094-.13.205-.2.354-.149l1.919.466a.207.207,0,0,1,.149.317,4.8,4.8,0,0,1-4.9,3.15,5.082,5.082,0,0,1-5.368-5.424" transform="translate(-78.721 -4.003)" fill="#c2c2c2"/>
    <path id="패스_20" data-name="패스 20" d="M204.923,14.827c0-3.225,1.9-5.442,4.883-5.442a4.1,4.1,0,0,1,3.411,1.64l.075-1.175c0-.186.112-.261.28-.261h1.882a.25.25,0,0,1,.28.261v9.935a.25.25,0,0,1-.28.261h-1.882c-.168,0-.28-.075-.28-.261l-.075-1.175a4.106,4.106,0,0,1-3.411,1.64c-2.982,0-4.883-2.218-4.883-5.424m5.536,3.038a2.808,2.808,0,0,0,2.833-3.038,2.841,2.841,0,1,0-5.666,0,2.808,2.808,0,0,0,2.833,3.038" transform="translate(-87.401 -4.003)" fill="#c2c2c2"/>
    <path id="패스_21" data-name="패스 21" d="M227.482,11.5c0-3.225,1.9-5.442,4.883-5.442a4.15,4.15,0,0,1,3.3,1.472V1.845a.236.236,0,0,1,.261-.261h2.088a.25.25,0,0,1,.28.261V16.459a.25.25,0,0,1-.28.261h-1.882c-.168,0-.28-.075-.28-.261l-.075-1.175a4.106,4.106,0,0,1-3.411,1.64c-2.982,0-4.883-2.218-4.883-5.424m5.536,3.038a2.808,2.808,0,0,0,2.833-3.038,2.841,2.841,0,1,0-5.666,0,2.808,2.808,0,0,0,2.833,3.038" transform="translate(-97.022 -0.676)" fill="#c2c2c2"/>
    <path id="패스_22" data-name="패스 22" d="M250.042,14.828c0-3.187,1.995-5.442,5.294-5.442,3.206,0,5.051,2.386,4.939,5.983a.26.26,0,0,1-.28.261h-7.158a2.628,2.628,0,0,0,4.809,1.1.292.292,0,0,1,.354-.112l1.789.615a.239.239,0,0,1,.15.354,4.915,4.915,0,0,1-4.6,2.666c-3.3,0-5.294-2.256-5.294-5.424m5.275-3.113a2.4,2.4,0,0,0-2.441,1.957h4.6a2.169,2.169,0,0,0-2.163-1.957" transform="translate(-106.644 -4.003)" fill="#c2c2c2"/>
    <path id="패스_23" data-name="패스 23" d="M271.3,19.786V9.851a.236.236,0,0,1,.261-.261h1.9a.249.249,0,0,1,.279.261L273.8,11.1a3.953,3.953,0,0,1,3.318-1.715,3.355,3.355,0,0,1,3.28,1.92,4.1,4.1,0,0,1,3.579-1.92c2.274,0,3.671,1.454,3.671,3.858v6.542a.244.244,0,0,1-.261.261h-2.106a.236.236,0,0,1-.261-.261v-5.48c0-1.733-.653-2.535-1.864-2.535-1.23,0-2.367.951-2.367,2.945v5.07a.245.245,0,0,1-.261.261h-2.106a.236.236,0,0,1-.261-.261v-5.48c0-1.733-.652-2.535-1.864-2.535-1.23,0-2.386.951-2.386,2.945v5.07a.236.236,0,0,1-.261.261h-2.088a.236.236,0,0,1-.261-.261" transform="translate(-115.712 -4.003)" fill="#c2c2c2"/>
    <path id="패스_24" data-name="패스 24" d="M304.366,24.3l1.92-4.771-4.194-9.488a.339.339,0,0,1-.037-.131c0-.093.093-.167.243-.167h2.5a.282.282,0,0,1,.3.205l2.553,6.412,2.479-6.412a.3.3,0,0,1,.3-.205h2.311c.168,0,.28.131.186.3l-5.853,14.352a.282.282,0,0,1-.3.205h-2.2c-.186,0-.261-.112-.2-.3" transform="translate(-128.828 -4.155)" fill="#c2c2c2"/>
    <path id="패스_25" data-name="패스 25" d="M12.129,17.033H4.9a4.9,4.9,0,0,1-4.9-4.9V4.9A4.9,4.9,0,0,1,4.9,0h7.226a4.9,4.9,0,0,1,4.9,4.9v7.226a4.9,4.9,0,0,1-4.9,4.9" transform="translate(0 0)" fill="#c2c2c2"/>
    <path id="패스_26" data-name="패스 26" d="M12.877,7.373l-.291-.629a2.416,2.416,0,0,0-4.386,0l-.289.625L6.554,10.307,4.26,15.273H6.975l.937-2.028.289.625a2.416,2.416,0,0,0,4.386,0l.291-.629,1.356-2.935Zm-2.484,5.368L9.269,10.307l1.125-2.434,1.126,2.434Z" transform="translate(-1.817 -2.278)" fill="#fff"/>
    <path id="패스_27" data-name="패스 27" d="M21.278,15.383l-1.356,2.934.575,1.239h2.71Z" transform="translate(-8.497 -6.561)" fill="#fff"/>
  </g>
</svg>
