<svg id="그룹_5118" data-name="그룹 5118" xmlns="http://www.w3.org/2000/svg" width="198.094" height="38.358" viewBox="0 0 198.094 38.358">
  <path id="패스_80" data-name="패스 80" d="M0,37.873H9.353V9.418H25.772c1.438,0,8.634,1.376,8.634,9.355s-6.15,9.552-10.6,9.552V13.849l-9.025,9.044V37.809H26.818c2.683,0,17.007-2.617,17.007-19.167S28.976,0,25.183,0H9.6L0,9.617Z" transform="translate(0 0)" fill="#002c66" fill-rule="evenodd"/>
  <path id="패스_81" data-name="패스 81" d="M54.34,8.852H64.62V2.924H47.776V26.955a3.813,3.813,0,0,0,.8,2.707,3.318,3.318,0,0,0,2.363.745H65.974V24.479H54.34Z" transform="translate(2.345 0.144)" fill="#002c66" fill-rule="evenodd"/>
  <path id="패스_82" data-name="패스 82" d="M66.008,2.924v10.4H59.832v6.045h6.176V37.813h6.217V2.924Z" transform="translate(2.937 0.144)" fill="#002c66" fill-rule="evenodd"/>
  <rect id="사각형_125" data-name="사각형 125" width="6.333" height="34.954" transform="translate(76.53 3.068)" fill="#002c66"/>
  <path id="패스_83" data-name="패스 83" d="M99.022,17.455a8.926,8.926,0,0,0,3.177-6.962,8.718,8.718,0,0,0-3.177-6.838l0,0a10.613,10.613,0,0,0-13.82,0,8.766,8.766,0,0,0-3.137,6.838A8.9,8.9,0,0,0,85.2,17.455a10.618,10.618,0,0,0,13.824,0M89.371,8.02a4.289,4.289,0,0,1,5.452.008,3.05,3.05,0,0,1,1.112,2.364,3.378,3.378,0,0,1-1.125,2.615,4.027,4.027,0,0,1-5.428.012,3.5,3.5,0,0,1-1.056-2.627A3.144,3.144,0,0,1,89.371,8.02" transform="translate(4.029 0.054)" fill="#002c66" fill-rule="evenodd"/>
  <path id="패스_84" data-name="패스 84" d="M85.164,18.931v5.393h24.055V25.5H85.164v7.946a3.792,3.792,0,0,0,.8,2.7,3.357,3.357,0,0,0,2.37.739h27.444v-5.5H91.729V30.275h24.054V18.931Z" transform="translate(4.181 0.93)" fill="#002c66" fill-rule="evenodd"/>
  <rect id="사각형_126" data-name="사각형 126" width="6.564" height="17.307" transform="translate(113.401 3.046)" fill="#002c66"/>
  <path id="패스_85" data-name="패스 85" d="M144.377,2.924V24.479H125.029V19.018h14.119V2.924H118.463V8.852h14.119v4.47H118.463V26.957a3.811,3.811,0,0,0,.8,2.707,3.28,3.28,0,0,0,2.329.743h22.781v7.808h6.565V2.924Z" transform="translate(5.815 0.144)" fill="#002c66" fill-rule="evenodd"/>
  <path id="패스_86" data-name="패스 86" d="M186.024,8.62v-5.7h-6.565V13.673h-6.8V8.852h2.868V2.924H153.314V8.852H156.1v4.821h-2.787V19.6h26.145v1.237h6.565V14.545h4.543V8.62Zm-19.755,5.054h-3.776V8.852h3.776Z" transform="translate(7.526 0.144)" fill="#002c66" fill-rule="evenodd"/>
  <path id="패스_87" data-name="패스 87" d="M155.308,21.035V33.327a3.827,3.827,0,0,0,.8,2.71,3.352,3.352,0,0,0,2.372.741h24.269a3.29,3.29,0,0,0,2.31-.721,3.739,3.739,0,0,0,.865-2.73V21.035Zm24.111,9.876H161.757V26.9h17.663Z" transform="translate(7.625 1.033)" fill="#002c66" fill-rule="evenodd"/>
  <rect id="사각형_127" data-name="사각형 127" width="198.094" height="38.358" transform="translate(0 0)" fill="none"/>
</svg>
