<svg xmlns="http://www.w3.org/2000/svg" xmlns:xlink="http://www.w3.org/1999/xlink" width="41.493" height="30.967" viewBox="0 0 41.493 30.967">
  <defs>
    <clipPath id="clip-path">
      <rect id="사각형_732" data-name="사각형 732" width="41.493" height="30.967" fill="none"/>
    </clipPath>
  </defs>
  <g id="그룹_5143" data-name="그룹 5143" transform="translate(0)">
    <g id="그룹_5142" data-name="그룹 5142" transform="translate(0 0)" clip-path="url(#clip-path)">
      <path id="패스_8807" data-name="패스 8807" d="M58.7,15.483A15.483,15.483,0,1,1,43.219,0,15.484,15.484,0,0,1,58.7,15.483" transform="translate(-17.21 0)" fill="#ffcf64"/>
      <path id="패스_8808" data-name="패스 8808" d="M30.967,15.483A15.483,15.483,0,1,1,15.483,0,15.484,15.484,0,0,1,30.967,15.483" transform="translate(0 0)" fill="#ffac27"/>
      <path id="패스_8809" data-name="패스 8809" d="M40.147,26.427a3.4,3.4,0,0,0-.884-1.3,4.109,4.109,0,0,0-1.486-.839A6.678,6.678,0,0,0,35.69,24h-3.3a2,2,0,0,0-1.438.425,1.9,1.9,0,0,0-.441,1.419V36.054a1.2,1.2,0,0,0,.5,1.054,1.867,1.867,0,0,0,2.017,0,1.2,1.2,0,0,0,.5-1.054v-3.59H35.69a5.8,5.8,0,0,0,2.058-.334,4.4,4.4,0,0,0,1.485-.909,3.646,3.646,0,0,0,.9-1.357,4.511,4.511,0,0,0,.29-1.608V28.01a4.44,4.44,0,0,0-.281-1.582m-2.754,1.6v.194a1.357,1.357,0,0,1-.466,1.219,2.772,2.772,0,0,1-1.536.36H33.529V26.643h2.055a4.263,4.263,0,0,1,.809.072,1.447,1.447,0,0,1,.553.221.962.962,0,0,1,.324.389,1.669,1.669,0,0,1,.123.7" transform="translate(-18.933 -14.89)" fill="#ffe8ae"/>
    </g>
  </g>
</svg>
