<svg xmlns="http://www.w3.org/2000/svg" xmlns:xlink="http://www.w3.org/1999/xlink" width="160.891" height="17.863" viewBox="0 0 160.891 17.863">
  <defs>
    <clipPath id="clip-path">
      <rect id="사각형_37" data-name="사각형 37" width="160.891" height="17.863" fill="none"/>
    </clipPath>
  </defs>
  <g id="그룹_199" data-name="그룹 199" transform="translate(0 1.353)">
    <g id="그룹_3" data-name="그룹 3" transform="translate(0 -1.353)" clip-path="url(#clip-path)">
      <path id="패스_13" data-name="패스 13" d="M37.609,14.857V2.365a.206.206,0,0,1,.228-.228h3.909c3.4,0,5.13,1.661,5.13,4.512,0,2.866-1.727,4.528-5.13,4.528H39.987v3.681a.214.214,0,0,1-.228.228H37.837a.206.206,0,0,1-.228-.228M44.417,6.6c0-1.531-.993-2.264-2.753-2.264H39.987V8.961h1.677c1.759,0,2.753-.717,2.753-2.362" transform="translate(-18.762 -1.066)" fill="#c10000"/>
      <path id="패스_14" data-name="패스 14" d="M60.071,14.582V1.813a.206.206,0,0,1,.228-.229h1.824a.206.206,0,0,1,.228.229V6.8a3.625,3.625,0,0,1,2.883-1.3,3.075,3.075,0,0,1,3.338,3.372v5.717a.214.214,0,0,1-.228.228H66.5a.206.206,0,0,1-.228-.228V9.793c0-1.514-.554-2.215-1.743-2.215-1.124,0-2.182.831-2.182,2.573v4.43a.206.206,0,0,1-.228.228H60.3a.206.206,0,0,1-.228-.228" transform="translate(-29.968 -0.79)" fill="#c10000"/>
      <path id="패스_15" data-name="패스 15" d="M80.615,14.141c0-2.818,1.661-4.756,4.267-4.756a3.587,3.587,0,0,1,2.981,1.433l.065-1.026c0-.163.1-.228.245-.228h1.645a.218.218,0,0,1,.245.228v8.681a.219.219,0,0,1-.245.228H88.172c-.147,0-.245-.065-.245-.228l-.065-1.026a3.588,3.588,0,0,1-2.981,1.433c-2.606,0-4.267-1.938-4.267-4.74M85.452,16.8a2.454,2.454,0,0,0,2.476-2.655,2.483,2.483,0,1,0-4.951,0A2.454,2.454,0,0,0,85.452,16.8" transform="translate(-40.217 -4.682)" fill="#c10000"/>
      <path id="패스_16" data-name="패스 16" d="M104.248,18.522V9.841a.206.206,0,0,1,.228-.228h1.661a.218.218,0,0,1,.244.228l.049,1.14a3.278,3.278,0,0,1,2.785-1.5,3.1,3.1,0,0,1,.619.065.218.218,0,0,1,.2.244V11.6a.173.173,0,0,1-.2.2c-.245,0-.521-.066-.9-.066a2.3,2.3,0,0,0-2.41,2.3v4.5a.206.206,0,0,1-.228.228h-1.824a.206.206,0,0,1-.228-.228" transform="translate(-52.007 -4.731)" fill="#c10000"/>
      <path id="패스_17" data-name="패스 17" d="M118.909,18.473V9.792a.206.206,0,0,1,.228-.228H120.8a.218.218,0,0,1,.244.228l.049,1.091a3.454,3.454,0,0,1,2.9-1.5,2.931,2.931,0,0,1,2.866,1.678,3.586,3.586,0,0,1,3.127-1.678,3.041,3.041,0,0,1,3.208,3.372v5.717a.214.214,0,0,1-.228.228h-1.841a.206.206,0,0,1-.228-.228V13.685c0-1.514-.57-2.215-1.629-2.215-1.075,0-2.068.831-2.068,2.573v4.43a.214.214,0,0,1-.228.228h-1.84a.206.206,0,0,1-.229-.228V13.685c0-1.514-.57-2.215-1.629-2.215-1.075,0-2.085.831-2.085,2.573v4.43a.206.206,0,0,1-.228.228h-1.824a.206.206,0,0,1-.228-.228" transform="translate(-59.321 -4.682)" fill="#c10000"/>
      <path id="패스_18" data-name="패스 18" d="M158.376,14.824l5.163-12.508a.258.258,0,0,1,.261-.179h1.645a.246.246,0,0,1,.261.179l5.179,12.508a.206.206,0,0,1,.017.1c0,.1-.065.163-.2.163h-2.231a.258.258,0,0,1-.261-.179L167.3,12.5h-5.375L161,14.906a.246.246,0,0,1-.261.179h-2.182c-.163,0-.261-.1-.179-.261m8.079-4.544-1.857-4.9-1.857,4.9Z" transform="translate(-78.996 -1.066)"/>
      <path id="패스_19" data-name="패스 19" d="M184.573,14.141a4.45,4.45,0,0,1,4.674-4.756A3.992,3.992,0,0,1,193.4,12.04a.178.178,0,0,1,.016.081.223.223,0,0,1-.179.212l-1.515.439-.082.017a.31.31,0,0,1-.228-.163,2.111,2.111,0,0,0-2.019-1.157,2.407,2.407,0,0,0-2.46,2.671,2.4,2.4,0,0,0,2.46,2.655,2.08,2.08,0,0,0,2.036-1.222c.082-.114.179-.179.31-.13l1.677.407a.181.181,0,0,1,.13.277,4.2,4.2,0,0,1-4.284,2.753,4.441,4.441,0,0,1-4.69-4.74" transform="translate(-92.08 -4.682)"/>
      <path id="패스_20" data-name="패스 20" d="M204.923,14.141c0-2.818,1.661-4.756,4.267-4.756a3.587,3.587,0,0,1,2.981,1.433l.065-1.026c0-.163.1-.228.245-.228h1.645a.218.218,0,0,1,.245.228v8.681a.219.219,0,0,1-.245.228H212.48c-.147,0-.245-.065-.245-.228l-.065-1.026a3.588,3.588,0,0,1-2.981,1.433c-2.606,0-4.267-1.938-4.267-4.74M209.76,16.8a2.454,2.454,0,0,0,2.476-2.655,2.483,2.483,0,1,0-4.951,0A2.454,2.454,0,0,0,209.76,16.8" transform="translate(-102.232 -4.682)"/>
      <path id="패스_21" data-name="패스 21" d="M227.482,10.249c0-2.818,1.661-4.756,4.267-4.756a3.626,3.626,0,0,1,2.883,1.286V1.812a.206.206,0,0,1,.228-.228h1.824a.219.219,0,0,1,.245.228v12.77a.219.219,0,0,1-.245.228h-1.645c-.147,0-.245-.065-.245-.228l-.065-1.026a3.588,3.588,0,0,1-2.981,1.433c-2.606,0-4.267-1.938-4.267-4.74m4.837,2.655a2.454,2.454,0,0,0,2.476-2.655,2.483,2.483,0,1,0-4.951,0,2.454,2.454,0,0,0,2.476,2.655" transform="translate(-113.486 -0.79)"/>
      <path id="패스_22" data-name="패스 22" d="M250.042,14.142a4.412,4.412,0,0,1,4.626-4.756c2.8,0,4.413,2.085,4.316,5.228a.227.227,0,0,1-.245.228h-6.254a2.3,2.3,0,0,0,4.2.961.255.255,0,0,1,.309-.1l1.564.537a.209.209,0,0,1,.131.31,4.3,4.3,0,0,1-4.023,2.329,4.407,4.407,0,0,1-4.626-4.74m4.609-2.72a2.1,2.1,0,0,0-2.133,1.71h4.023a1.9,1.9,0,0,0-1.89-1.71" transform="translate(-124.741 -4.682)"/>
      <path id="패스_23" data-name="패스 23" d="M271.3,18.473V9.792a.206.206,0,0,1,.228-.228h1.661a.218.218,0,0,1,.244.228l.049,1.091a3.454,3.454,0,0,1,2.9-1.5,2.931,2.931,0,0,1,2.866,1.678,3.586,3.586,0,0,1,3.128-1.678,3.041,3.041,0,0,1,3.208,3.372v5.717a.214.214,0,0,1-.228.228h-1.84a.206.206,0,0,1-.228-.228V13.685c0-1.514-.57-2.215-1.629-2.215-1.075,0-2.068.831-2.068,2.573v4.43a.214.214,0,0,1-.228.228h-1.841a.206.206,0,0,1-.228-.228V13.685c0-1.514-.57-2.215-1.629-2.215-1.075,0-2.085.831-2.085,2.573v4.43a.206.206,0,0,1-.228.228H271.53a.206.206,0,0,1-.228-.228" transform="translate(-135.347 -4.682)"/>
      <path id="패스_24" data-name="패스 24" d="M304.075,22.462l1.678-4.169L302.088,10a.3.3,0,0,1-.033-.114c0-.081.081-.146.212-.146h2.182a.246.246,0,0,1,.261.179l2.231,5.6,2.166-5.6a.258.258,0,0,1,.261-.179h2.02c.147,0,.245.114.163.261l-5.114,12.541a.246.246,0,0,1-.261.179h-1.922c-.162,0-.228-.1-.179-.261" transform="translate(-150.689 -4.86)"/>
      <path id="패스_25" data-name="패스 25" d="M10.6,14.883H4.285A4.285,4.285,0,0,1,0,10.6V4.285A4.285,4.285,0,0,1,4.285,0H10.6a4.285,4.285,0,0,1,4.285,4.285V10.6A4.285,4.285,0,0,1,10.6,14.883" transform="translate(0 0)"/>
      <path id="패스_26" data-name="패스 26" d="M11.79,7.117l-.254-.549a2.111,2.111,0,0,0-3.833,0l-.253.546L6.264,9.681l-2,4.339H6.632l.818-1.772.253.546a2.111,2.111,0,0,0,3.833,0l.254-.549,1.185-2.564Zm-2.17,4.691L8.637,9.681l.983-2.127L10.6,9.681Z" transform="translate(-2.125 -2.665)" fill="#fff"/>
      <path id="패스_27" data-name="패스 27" d="M21.107,15.383l-1.185,2.564.5,1.082h2.368Z" transform="translate(-9.939 -7.674)" fill="#fff"/>
    </g>
  </g>
</svg>
